<svg width="58" height="58" viewBox="0 0 58 58" fill="none" xmlns="http://www.w3.org/2000/svg">
<path d="M57.1197 36.0114C53.247 51.5456 37.5133 60.9994 21.9773 57.1256C6.44777 53.2529 -3.00603 37.5183 0.868414 21.9854C4.73945 6.44946 20.4731 -3.00506 36.0043 0.867685C51.5392 4.74043 60.9924 20.4767 57.1193 36.0116L57.1195 36.0114H57.1197Z" fill="black"/>
<path d="M41.7801 24.866C42.3573 21.0071 39.4194 18.9329 35.4021 17.5491L36.7053 12.322L33.5234 11.5291L32.2547 16.6186C31.4182 16.41 30.5592 16.2134 29.7054 16.0185L30.9832 10.8954L27.8033 10.1025L26.4993 15.328C25.8071 15.1704 25.1272 15.0146 24.4676 14.8505L24.4713 14.834L20.0833 13.7383L19.2369 17.1368C19.2369 17.1368 21.5976 17.6779 21.5479 17.7112C22.8364 18.0328 23.0694 18.8858 23.0307 19.5619L21.5462 25.5168C21.6349 25.5394 21.75 25.572 21.877 25.623C21.7708 25.5966 21.6578 25.5679 21.5406 25.5398L19.4598 33.8818C19.3024 34.2733 18.9027 34.8608 18.0018 34.6377C18.0337 34.6839 15.6891 34.0606 15.6891 34.0606L14.1094 37.7028L18.2501 38.7351C19.0205 38.9283 19.7753 39.1304 20.5187 39.3204L19.202 44.6076L22.3803 45.4004L23.6842 40.1694C24.5525 40.4051 25.3951 40.6226 26.22 40.8275L24.9204 46.0338L28.1025 46.8267L29.4191 41.5495C34.8449 42.5764 38.9247 42.1624 40.642 37.2547C42.0257 33.3034 40.5731 31.0243 37.7186 29.5381C39.7977 29.0586 41.3637 27.6912 41.7812 24.8664L41.7803 24.8657L41.7801 24.866ZM34.5102 35.0603C33.5268 39.0116 26.8741 36.8757 24.7172 36.3401L26.4645 29.3356C28.6212 29.874 35.5379 30.9396 34.5103 35.0603H34.5102ZM35.4942 24.8087C34.5972 28.4028 29.0601 26.5769 27.2639 26.1291L28.848 19.7765C30.6442 20.2242 36.4287 21.0599 35.4945 24.8087H35.4942Z" fill="white"/>
</svg>
