<?xml version="1.0" encoding="UTF-8"?>
<!DOCTYPE svg PUBLIC "-//W3C//DTD SVG 1.1//EN" "http://www.w3.org/Graphics/SVG/1.1/DTD/svg11.dtd">
<svg xmlns="http://www.w3.org/2000/svg" version="1.1" width="250px" height="250px" style="shape-rendering:geometricPrecision; text-rendering:geometricPrecision; image-rendering:optimizeQuality; fill-rule:evenodd; clip-rule:evenodd" xmlns:xlink="http://www.w3.org/1999/xlink">
<g><path style="opacity:0.986" fill="#02000b" d="M 109.5,1.5 C 171.272,-2.47693 214.772,23.5231 240,79.5C 256.987,132.05 245.82,177.55 206.5,216C 167.106,247.439 123.772,254.105 76.5,236C 37.8921,218.05 14.0588,188.217 5,146.5C -2.54419,91.4414 16.6225,48.608 62.5,18C 77.3456,9.77575 93.0123,4.27575 109.5,1.5 Z"/></g>
<g><path style="opacity:1" fill="#f6f2e3" d="M 73.5,68.5 C 73.7329,70.0618 74.3995,71.3951 75.5,72.5C 71.4852,72.2759 70.8185,73.4425 73.5,76C 73.0946,76.9454 72.428,77.6121 71.5,78C 66.3478,79.8591 61.0144,80.8591 55.5,81C 54.3597,83.4583 52.8597,85.625 51,87.5C 50.0546,87.0946 49.3879,86.428 49,85.5C 48.66,100.14 51.4933,114.14 57.5,127.5C 55.4424,125.073 53.6091,122.407 52,119.5C 50.6514,114.436 49.1514,109.436 47.5,104.5C 47.3916,99.2895 46.7249,94.2895 45.5,89.5C 45.3336,81.16 45.5003,72.8267 46,64.5C 46.0619,60.6115 47.2285,57.1115 49.5,54C 52.7829,53.2571 55.7829,53.9238 58.5,56C 63.9403,59.7087 68.9403,63.8753 73.5,68.5 Z"/></g>
<g><path style="opacity:1" fill="#f5f1e2" d="M 199.5,86.5 C 197.837,88.4385 197.171,90.7718 197.5,93.5C 197.5,93.8333 197.5,94.1667 197.5,94.5C 194.436,91.1763 192.603,87.1763 192,82.5C 189.931,81.7362 187.764,81.2362 185.5,81C 184.111,78.7609 182.444,76.9276 180.5,75.5C 181.133,71.581 180.3,71.581 178,75.5C 175.231,82.1407 173.064,88.974 171.5,96C 172.387,99.3839 173.887,99.8839 176,97.5C 175.625,100.73 174.125,103.397 171.5,105.5C 167.145,100.813 162.812,96.1464 158.5,91.5C 169.968,78.9992 181.968,67.1658 194.5,56C 201.51,53.6713 204.177,56.3379 202.5,64C 201.808,71.5628 200.808,79.0628 199.5,86.5 Z"/></g>
<g><path style="opacity:1" fill="#f4caa7" d="M 75.5,72.5 C 76.4013,73.2905 77.0679,74.2905 77.5,75.5C 77.5,76.1667 77.5,76.8333 77.5,77.5C 78.5639,80.8647 79.5639,84.1981 80.5,87.5C 81.2259,90.958 79.8925,92.6247 76.5,92.5C 76.4457,95.967 77.9457,98.6337 81,100.5C 81.8141,102.902 81.6474,105.235 80.5,107.5C 79.914,107.291 79.414,106.957 79,106.5C 78.8184,109.226 78.3184,111.893 77.5,114.5C 76.3131,113.106 75.6465,113.273 75.5,115C 76.2887,116.626 77.2887,118.126 78.5,119.5C 77.635,120.583 76.635,120.749 75.5,120C 73.2387,118.187 70.9053,116.687 68.5,115.5C 67.1521,119.173 64.4854,121.506 60.5,122.5C 64.3935,126.053 69.0602,127.72 74.5,127.5C 71.6946,128.319 68.6946,128.819 65.5,129C 64.646,130.022 63.646,130.855 62.5,131.5C 61.3777,130.37 60.0443,129.703 58.5,129.5C 57.6618,129.158 57.3284,128.492 57.5,127.5C 51.4933,114.14 48.66,100.14 49,85.5C 49.3879,86.428 50.0546,87.0946 51,87.5C 52.8597,85.625 54.3597,83.4583 55.5,81C 61.0144,80.8591 66.3478,79.8591 71.5,78C 72.428,77.6121 73.0946,76.9454 73.5,76C 70.8185,73.4425 71.4852,72.2759 75.5,72.5 Z"/></g>
<g><path style="opacity:1" fill="#f4cca9" d="M 180.5,75.5 C 182.444,76.9276 184.111,78.7609 185.5,81C 187.764,81.2362 189.931,81.7362 192,82.5C 192.603,87.1763 194.436,91.1763 197.5,94.5C 197.5,95.5 197.5,96.5 197.5,97.5C 196.343,100.273 195.676,103.273 195.5,106.5C 193.419,112.046 190.752,117.379 187.5,122.5C 185.554,121.965 184.554,120.632 184.5,118.5C 186.616,116.912 186.949,114.912 185.5,112.5C 183.833,111.167 182.167,111.167 180.5,112.5C 180.167,111.833 179.833,111.167 179.5,110.5C 180.082,107.198 180.415,103.865 180.5,100.5C 180.516,95.1488 179.849,89.9821 178.5,85C 178.328,81.5226 178.994,78.356 180.5,75.5 Z"/></g>
<g><path style="opacity:1" fill="#e7e7dd" d="M 73.5,68.5 C 83.2922,76.4557 91.4588,85.789 98,96.5C 99.0113,97.3366 100.178,97.67 101.5,97.5C 101.519,99.0603 101.852,100.56 102.5,102C 101.423,103.543 100.089,103.543 98.5,102C 96.0586,96.9525 93.2252,92.1191 90,87.5C 90.9134,90.5401 91.7467,93.7068 92.5,97C 92.5033,99.4839 91.8366,101.651 90.5,103.5C 90.1667,101.5 89.8333,99.5 89.5,97.5C 88.7525,88.6891 84.7525,81.3558 77.5,75.5C 77.0679,74.2905 76.4013,73.2905 75.5,72.5C 74.3995,71.3951 73.7329,70.0618 73.5,68.5 Z"/></g>
<g><path style="opacity:1" fill="#ccc5b0" d="M 174.5,76.5 C 174.31,81.8975 172.81,87.2309 170,92.5C 166.674,94.0095 165.007,93.0095 165,89.5C 167.998,85.0081 171.165,80.6748 174.5,76.5 Z"/></g>
<g><path style="opacity:1" fill="#9d816b" d="M 77.5,75.5 C 84.7525,81.3558 88.7525,88.6891 89.5,97.5C 87.021,89.8677 83.021,83.201 77.5,77.5C 77.5,76.8333 77.5,76.1667 77.5,75.5 Z"/></g>
<g><path style="opacity:1" fill="#fbfbfb" d="M 146.5,89.5 C 148.438,91.1628 150.772,91.8294 153.5,91.5C 174.039,104.098 180.372,122.098 172.5,145.5C 171.833,148.5 171.167,151.5 170.5,154.5C 169.834,157.028 169.168,159.694 168.5,162.5C 167.893,162.376 167.56,162.043 167.5,161.5C 168.145,158.453 167.145,156.287 164.5,155C 158.327,153.831 152.493,154.664 147,157.5C 146.187,159.436 145.687,161.436 145.5,163.5C 145.328,164.492 145.662,165.158 146.5,165.5C 142.382,168.061 138.049,170.561 133.5,173C 126.751,173.877 120.084,173.544 113.5,172C 109.732,170.713 107.065,168.879 105.5,166.5C 113.702,171.949 122.702,173.783 132.5,172C 142.121,168.575 145.787,162.075 143.5,152.5C 139.338,135.514 132.005,120.18 121.5,106.5C 117.955,101.789 113.621,97.9554 108.5,95C 109.056,94.6174 109.389,94.1174 109.5,93.5C 115.26,92.1442 120.926,90.6442 126.5,89C 133.247,88.2075 139.914,88.3742 146.5,89.5 Z"/></g>
<g><path style="opacity:1" fill="#99989b" d="M 146.5,89.5 C 149.067,89.7215 151.401,90.3882 153.5,91.5C 150.772,91.8294 148.438,91.1628 146.5,89.5 Z"/></g>
<g><path style="opacity:1" fill="#a09e99" d="M 199.5,86.5 C 200.01,89.3878 199.344,91.7211 197.5,93.5C 197.171,90.7718 197.837,88.4385 199.5,86.5 Z"/></g>
<g><path style="opacity:1" fill="#cc9c7d" d="M 77.5,77.5 C 83.021,83.201 87.021,89.8677 89.5,97.5C 89.8333,99.5 90.1667,101.5 90.5,103.5C 89.0992,103.971 87.7658,104.638 86.5,105.5C 88.1491,107.65 89.9824,109.65 92,111.5C 92.6667,112.5 92.6667,113.5 92,114.5C 87.2128,118.295 83.0461,122.628 79.5,127.5C 78.8485,126.909 78.1818,126.243 77.5,125.5C 76.4822,126.193 75.4822,126.859 74.5,127.5C 69.0602,127.72 64.3935,126.053 60.5,122.5C 64.4854,121.506 67.1521,119.173 68.5,115.5C 70.9053,116.687 73.2387,118.187 75.5,120C 76.635,120.749 77.635,120.583 78.5,119.5C 77.2887,118.126 76.2887,116.626 75.5,115C 75.6465,113.273 76.3131,113.106 77.5,114.5C 78.3184,111.893 78.8184,109.226 79,106.5C 79.414,106.957 79.914,107.291 80.5,107.5C 81.6474,105.235 81.8141,102.902 81,100.5C 77.9457,98.6337 76.4457,95.967 76.5,92.5C 79.8925,92.6247 81.2259,90.958 80.5,87.5C 79.5639,84.1981 78.5639,80.8647 77.5,77.5 Z"/></g>
<g><path style="opacity:1" fill="#8f8a84" d="M 109.5,93.5 C 109.389,94.1174 109.056,94.6174 108.5,95C 113.621,97.9554 117.955,101.789 121.5,106.5C 121.5,107.167 121.167,107.5 120.5,107.5C 116.511,101.338 110.844,98.0046 103.5,97.5C 105.147,95.6736 107.147,94.3403 109.5,93.5 Z"/></g>
<g><path style="opacity:1" fill="#373638" d="M 45.5,89.5 C 46.7249,94.2895 47.3916,99.2895 47.5,104.5C 45.7623,99.7831 45.0956,94.7831 45.5,89.5 Z"/></g>
<g><path style="opacity:1" fill="#fbf7e6" d="M 101.5,97.5 C 102.167,97.5 102.833,97.5 103.5,97.5C 110.844,98.0046 116.511,101.338 120.5,107.5C 129.352,120.702 136.352,134.868 141.5,150C 140.906,150.464 140.239,150.631 139.5,150.5C 137.895,145.896 134.895,142.562 130.5,140.5C 122.212,135.306 113.879,135.306 105.5,140.5C 104.391,140.557 103.391,140.89 102.5,141.5C 101.624,141.631 100.957,141.298 100.5,140.5C 99.9264,138.941 99.2598,137.441 98.5,136C 95.1667,135.333 91.8333,135.333 88.5,136C 87.572,136.388 86.9054,137.055 86.5,138C 87.8333,140 89.1667,142 90.5,144C 88.2061,148.634 86.0395,148.467 84,143.5C 83.0638,137.972 81.5638,132.639 79.5,127.5C 83.0461,122.628 87.2128,118.295 92,114.5C 92.6667,113.5 92.6667,112.5 92,111.5C 89.9824,109.65 88.1491,107.65 86.5,105.5C 87.7658,104.638 89.0992,103.971 90.5,103.5C 91.8366,101.651 92.5033,99.4839 92.5,97C 91.7467,93.7068 90.9134,90.5401 90,87.5C 93.2252,92.1191 96.0586,96.9525 98.5,102C 100.089,103.543 101.423,103.543 102.5,102C 101.852,100.56 101.519,99.0603 101.5,97.5 Z"/></g>
<g><path style="opacity:1" fill="#4c4948" d="M 197.5,97.5 C 197.785,100.829 197.118,103.829 195.5,106.5C 195.676,103.273 196.343,100.273 197.5,97.5 Z"/></g>
<g><path style="opacity:1" fill="#c99b7d" d="M 180.5,75.5 C 178.994,78.356 178.328,81.5226 178.5,85C 179.849,89.9821 180.516,95.1488 180.5,100.5C 180.415,103.865 180.082,107.198 179.5,110.5C 179.833,111.167 180.167,111.833 180.5,112.5C 182.167,111.167 183.833,111.167 185.5,112.5C 186.949,114.912 186.616,116.912 184.5,118.5C 180.564,116.234 177.231,113.234 174.5,109.5C 173.5,108.167 172.5,106.833 171.5,105.5C 174.125,103.397 175.625,100.73 176,97.5C 173.887,99.8839 172.387,99.3839 171.5,96C 173.064,88.974 175.231,82.1407 178,75.5C 180.3,71.581 181.133,71.581 180.5,75.5 Z"/></g>
<g><path style="opacity:1" fill="#a7a5a0" d="M 153.5,91.5 C 155.167,91.5 156.833,91.5 158.5,91.5C 162.812,96.1464 167.145,100.813 171.5,105.5C 172.5,106.833 173.5,108.167 174.5,109.5C 173.957,109.56 173.624,109.893 173.5,110.5C 175.946,116.222 176.946,122.222 176.5,128.5C 176.333,132.167 176.167,135.833 176,139.5C 174.702,140.946 174.535,142.279 175.5,143.5C 175.027,144.906 174.027,145.573 172.5,145.5C 180.372,122.098 174.039,104.098 153.5,91.5 Z"/></g>
<g><path style="opacity:1" fill="#b0a89c" d="M 121.5,106.5 C 132.005,120.18 139.338,135.514 143.5,152.5C 144.41,161.768 140.41,167.768 131.5,170.5C 128.167,169.833 124.833,169.167 121.5,168.5C 124.5,168.5 127.5,168.5 130.5,168.5C 135.336,168.276 138.336,165.943 139.5,161.5C 140.787,157.935 140.787,154.268 139.5,150.5C 140.239,150.631 140.906,150.464 141.5,150C 136.352,134.868 129.352,120.702 120.5,107.5C 121.167,107.5 121.5,107.167 121.5,106.5 Z"/></g>
<g><path style="opacity:1" fill="#f2efe0" d="M 174.5,109.5 C 177.231,113.234 180.564,116.234 184.5,118.5C 184.554,120.632 185.554,121.965 187.5,122.5C 185.207,125.762 185.207,129.095 187.5,132.5C 187.664,135.187 187.497,137.854 187,140.5C 183.445,136.441 180.278,136.774 177.5,141.5C 176.5,141.833 175.833,142.5 175.5,143.5C 174.535,142.279 174.702,140.946 176,139.5C 176.167,135.833 176.333,132.167 176.5,128.5C 176.946,122.222 175.946,116.222 173.5,110.5C 173.624,109.893 173.957,109.56 174.5,109.5 Z"/></g>
<g><path style="opacity:1" fill="#e5dac2" d="M 79.5,127.5 C 81.5638,132.639 83.0638,137.972 84,143.5C 86.0395,148.467 88.2061,148.634 90.5,144C 89.1667,142 87.8333,140 86.5,138C 86.9054,137.055 87.572,136.388 88.5,136C 91.8333,135.333 95.1667,135.333 98.5,136C 99.2598,137.441 99.9264,138.941 100.5,140.5C 100.957,141.298 101.624,141.631 102.5,141.5C 99.4611,143.456 96.6278,145.79 94,148.5C 93.5034,150.81 93.3367,153.143 93.5,155.5C 92.475,155.897 92.3083,156.563 93,157.5C 94.8333,159.333 96.6667,161.167 98.5,163C 96.255,162.805 94.4216,161.638 93,159.5C 92.3333,161.833 92.3333,164.167 93,166.5C 99.4491,178.138 109.282,184.304 122.5,185C 128.974,188.049 135.64,190.716 142.5,193C 149.158,193.5 155.825,193.666 162.5,193.5C 161.07,194.537 159.403,195.204 157.5,195.5C 151.211,196.372 144.878,196.705 138.5,196.5C 138.167,196.5 137.833,196.5 137.5,196.5C 133.015,195.216 128.349,194.216 123.5,193.5C 119.922,193.451 116.589,192.785 113.5,191.5C 111.485,190.076 109.152,189.41 106.5,189.5C 96.204,186.182 87.5373,180.516 80.5,172.5C 81.4124,171.262 81.5791,169.928 81,168.5C 72.7279,158.716 69.5612,147.716 71.5,135.5C 70.3777,136.63 69.0443,137.297 67.5,137.5C 63.9292,135.603 60.9292,132.936 58.5,129.5C 60.0443,129.703 61.3777,130.37 62.5,131.5C 63.646,130.855 64.646,130.022 65.5,129C 68.6946,128.819 71.6946,128.319 74.5,127.5C 75.4822,126.859 76.4822,126.193 77.5,125.5C 78.1818,126.243 78.8485,126.909 79.5,127.5 Z"/></g>
<g><path style="opacity:1" fill="#686259" d="M 130.5,140.5 C 121.244,137.269 112.578,138.269 104.5,143.5C 104.557,142.391 104.89,141.391 105.5,140.5C 113.879,135.306 122.212,135.306 130.5,140.5 Z"/></g>
<g><path style="opacity:1" fill="#484341" d="M 187.5,132.5 C 188.482,135.962 188.815,139.629 188.5,143.5C 185.169,141.702 181.502,141.036 177.5,141.5C 180.278,136.774 183.445,136.441 187,140.5C 187.497,137.854 187.664,135.187 187.5,132.5 Z"/></g>
<g><path style="opacity:1" fill="#212123" d="M 130.5,140.5 C 134.895,142.562 137.895,145.896 139.5,150.5C 140.787,154.268 140.787,157.935 139.5,161.5C 136.762,164.246 133.762,166.58 130.5,168.5C 127.5,168.5 124.5,168.5 121.5,168.5C 113.705,167.269 107.038,163.936 101.5,158.5C 96.9717,152.474 97.9717,147.474 104.5,143.5C 112.578,138.269 121.244,137.269 130.5,140.5 Z"/></g>
<g><path style="opacity:1" fill="#b6a78e" d="M 80.5,172.5 C 73.1943,163.881 68.5277,153.881 66.5,142.5C 67.0463,140.865 67.3796,139.199 67.5,137.5C 69.0443,137.297 70.3777,136.63 71.5,135.5C 69.5612,147.716 72.7279,158.716 81,168.5C 81.5791,169.928 81.4124,171.262 80.5,172.5 Z"/></g>
<g><path style="opacity:1" fill="#e1e1e1" d="M 112.5,144.5 C 115.167,144.5 117.833,144.5 120.5,144.5C 120.5,145.5 120.5,146.5 120.5,147.5C 118.143,147.663 115.81,147.497 113.5,147C 112.748,146.329 112.414,145.496 112.5,144.5 Z"/></g>
<g><path style="opacity:1" fill="#6b6c6d" d="M 124.5,146.5 C 128.31,147.754 128.31,148.754 124.5,149.5C 124.5,148.5 124.5,147.5 124.5,146.5 Z"/></g>
<g><path style="opacity:1" fill="#8c8c8d" d="M 106.5,147.5 C 108.337,147.639 108.67,148.306 107.5,149.5C 106.702,149.043 106.369,148.376 106.5,147.5 Z"/></g>
<g><path style="opacity:1" fill="#ad9e88" d="M 105.5,140.5 C 104.89,141.391 104.557,142.391 104.5,143.5C 97.9717,147.474 96.9717,152.474 101.5,158.5C 100.417,158.461 99.4168,158.127 98.5,157.5C 97.537,157.97 97.537,158.637 98.5,159.5C 98.1667,159.5 97.8333,159.5 97.5,159.5C 95.8333,158.5 94.5,157.167 93.5,155.5C 93.3367,153.143 93.5034,150.81 94,148.5C 96.6278,145.79 99.4611,143.456 102.5,141.5C 103.391,140.89 104.391,140.557 105.5,140.5 Z"/></g>
<g><path style="opacity:1" fill="#dad3cc" d="M 167.5,161.5 C 159.987,160.989 152.654,161.656 145.5,163.5C 145.687,161.436 146.187,159.436 147,157.5C 152.493,154.664 158.327,153.831 164.5,155C 167.145,156.287 168.145,158.453 167.5,161.5 Z"/></g>
<g><path style="opacity:1" fill="#1e1e20" d="M 177.5,141.5 C 181.502,141.036 185.169,141.702 188.5,143.5C 189.014,145.617 189.347,147.784 189.5,150C 187.482,157.853 186.149,165.686 185.5,173.5C 185.5,171.5 185.5,169.5 185.5,167.5C 185.631,166.624 185.298,165.957 184.5,165.5C 174.413,169.099 169.747,165.432 170.5,154.5C 171.167,151.5 171.833,148.5 172.5,145.5C 174.027,145.573 175.027,144.906 175.5,143.5C 175.833,142.5 176.5,141.833 177.5,141.5 Z"/></g>
<g><path style="opacity:1" fill="#c8c8c8" d="M 178.5,145.5 C 179.675,145.281 180.675,145.614 181.5,146.5C 180.215,148.659 178.548,149.326 176.5,148.5C 177.193,147.482 177.859,146.482 178.5,145.5 Z"/></g>
<g><path style="opacity:1" fill="#a7a39b" d="M 170.5,154.5 C 169.747,165.432 174.413,169.099 184.5,165.5C 185.298,165.957 185.631,166.624 185.5,167.5C 179.572,172.843 174.239,172.01 169.5,165C 161.754,162.929 154.087,163.095 146.5,165.5C 145.662,165.158 145.328,164.492 145.5,163.5C 152.654,161.656 159.987,160.989 167.5,161.5C 167.56,162.043 167.893,162.376 168.5,162.5C 169.168,159.694 169.834,157.028 170.5,154.5 Z"/></g>
<g><path style="opacity:1" fill="#dfd8c9" d="M 101.5,158.5 C 107.038,163.936 113.705,167.269 121.5,168.5C 124.833,169.167 128.167,169.833 131.5,170.5C 125.755,170.789 120.088,170.289 114.5,169C 108.758,166.403 103.424,163.237 98.5,159.5C 97.537,158.637 97.537,157.97 98.5,157.5C 99.4168,158.127 100.417,158.461 101.5,158.5 Z"/></g>
<g><path style="opacity:1" fill="#898479" d="M 143.5,152.5 C 145.787,162.075 142.121,168.575 132.5,172C 122.702,173.783 113.702,171.949 105.5,166.5C 102.833,164.167 100.167,161.833 97.5,159.5C 97.8333,159.5 98.1667,159.5 98.5,159.5C 103.424,163.237 108.758,166.403 114.5,169C 120.088,170.289 125.755,170.789 131.5,170.5C 140.41,167.768 144.41,161.768 143.5,152.5 Z"/></g>
<g><path style="opacity:1" fill="#62584f" d="M 139.5,161.5 C 138.336,165.943 135.336,168.276 130.5,168.5C 133.762,166.58 136.762,164.246 139.5,161.5 Z"/></g>
<g><path style="opacity:1" fill="#fbf7e6" d="M 93.5,155.5 C 94.5,157.167 95.8333,158.5 97.5,159.5C 100.167,161.833 102.833,164.167 105.5,166.5C 107.065,168.879 109.732,170.713 113.5,172C 120.084,173.544 126.751,173.877 133.5,173C 138.049,170.561 142.382,168.061 146.5,165.5C 154.087,163.095 161.754,162.929 169.5,165C 174.239,172.01 179.572,172.843 185.5,167.5C 185.5,169.5 185.5,171.5 185.5,173.5C 184.599,174.29 183.932,175.29 183.5,176.5C 180.012,177.143 177.512,179.143 176,182.5C 175.667,181.833 175.333,181.167 175,180.5C 171.465,186.645 166.632,187.979 160.5,184.5C 161.18,183.14 161.847,181.807 162.5,180.5C 168.228,179.162 170.561,175.828 169.5,170.5C 164.979,167.136 160.312,166.802 155.5,169.5C 153.297,170.052 152.464,171.385 153,173.5C 154.48,176.817 156.98,178.817 160.5,179.5C 159.688,182.275 158.021,184.442 155.5,186C 146.965,187.765 139.632,185.598 133.5,179.5C 132.289,180.274 132.289,181.107 133.5,182C 140.921,188.608 149.254,190.108 158.5,186.5C 162.87,188.398 167.203,189.065 171.5,188.5C 168.847,190.724 165.847,192.391 162.5,193.5C 155.825,193.666 149.158,193.5 142.5,193C 135.64,190.716 128.974,188.049 122.5,185C 109.282,184.304 99.4491,178.138 93,166.5C 92.3333,164.167 92.3333,161.833 93,159.5C 94.4216,161.638 96.255,162.805 98.5,163C 96.6667,161.167 94.8333,159.333 93,157.5C 92.3083,156.563 92.475,155.897 93.5,155.5 Z"/></g>
<g><path style="opacity:1" fill="#797777" d="M 169.5,170.5 C 164.682,172.016 160.015,171.683 155.5,169.5C 160.312,166.802 164.979,167.136 169.5,170.5 Z"/></g>
<g><path style="opacity:1" fill="#38373a" d="M 155.5,169.5 C 160.015,171.683 164.682,172.016 169.5,170.5C 170.561,175.828 168.228,179.162 162.5,180.5C 161.833,180.167 161.167,179.833 160.5,179.5C 156.98,178.817 154.48,176.817 153,173.5C 152.464,171.385 153.297,170.052 155.5,169.5 Z"/></g>
<g><path style="opacity:1" fill="#999181" d="M 183.5,176.5 C 180.521,181.479 176.521,185.479 171.5,188.5C 167.203,189.065 162.87,188.398 158.5,186.5C 149.254,190.108 140.921,188.608 133.5,182C 132.289,181.107 132.289,180.274 133.5,179.5C 139.632,185.598 146.965,187.765 155.5,186C 158.021,184.442 159.688,182.275 160.5,179.5C 161.167,179.833 161.833,180.167 162.5,180.5C 161.847,181.807 161.18,183.14 160.5,184.5C 166.632,187.979 171.465,186.645 175,180.5C 175.333,181.167 175.667,181.833 176,182.5C 177.512,179.143 180.012,177.143 183.5,176.5 Z"/></g>
<g><path style="opacity:1" fill="#9a8f7c" d="M 106.5,189.5 C 109.152,189.41 111.485,190.076 113.5,191.5C 110.848,191.59 108.515,190.924 106.5,189.5 Z"/></g>
<g><path style="opacity:1" fill="#817565" d="M 123.5,193.5 C 128.349,194.216 133.015,195.216 137.5,196.5C 132.454,196.735 127.787,195.735 123.5,193.5 Z"/></g>
<g><path style="opacity:1" fill="#5c554f" d="M 157.5,195.5 C 157.082,196.222 156.416,196.722 155.5,197C 149.651,197.818 143.985,197.652 138.5,196.5C 144.878,196.705 151.211,196.372 157.5,195.5 Z"/></g>
</svg>
