<?xml version="1.0" standalone="no"?>
<!DOCTYPE svg PUBLIC "-//W3C//DTD SVG 20010904//EN"
 "http://www.w3.org/TR/2001/REC-SVG-20010904/DTD/svg10.dtd">
<svg version="1.0" xmlns="http://www.w3.org/2000/svg"
 width="250.000000pt" height="250.000000pt" viewBox="0 0 250.000000 250.000000"
 preserveAspectRatio="xMidYMid meet">

<g transform="translate(0.000000,250.000000) scale(0.100000,-0.100000)"
fill="#000000" stroke="none">
<path d="M194 1815 c0 -49 1 -71 3 -48 2 23 2 64 0 90 -2 26 -3 8 -3 -42z"/>
<path d="M705 1798 c28 -46 70 -131 80 -162 3 -10 8 -16 12 -12 12 11 -95 216
-113 216 -3 0 7 -19 21 -42z"/>
<path d="M1932 1766 c-14 -32 -36 -145 -29 -152 3 -3 9 11 12 32 4 22 13 61
22 87 16 52 13 73 -5 33z"/>
<path d="M1373 1733 c15 -2 39 -2 55 0 15 2 2 4 -28 4 -30 0 -43 -2 -27 -4z"/>
<path d="M2251 1684 c0 -11 3 -14 6 -6 3 7 2 16 -1 19 -3 4 -6 -2 -5 -13z"/>
<path d="M1690 1680 c0 -5 5 -10 11 -10 5 0 7 5 4 10 -3 6 -8 10 -11 10 -2 0
-4 -4 -4 -10z"/>
<path d="M1721 1658 c2 -2 24 -21 49 -43 l45 -40 -40 43 c-21 23 -43 42 -49
42 -5 0 -7 -1 -5 -2z"/>
<path d="M1010 1630 c0 -4 15 -11 34 -14 19 -4 55 -25 82 -49 26 -23 44 -35
39 -27 -10 16 -59 59 -82 73 -24 15 -73 26 -73 17z"/>
<path d="M920 1613 c0 -5 5 -15 10 -23 8 -12 10 -11 10 8 0 12 -4 22 -10 22
-5 0 -10 -3 -10 -7z"/>
<path d="M222 1530 c0 -14 2 -19 5 -12 2 6 2 18 0 25 -3 6 -5 1 -5 -13z"/>
<path d="M780 1456 c0 -2 8 -10 18 -17 15 -13 16 -12 3 4 -13 16 -21 21 -21
13z"/>
<path d="M1955 1430 c10 -11 20 -20 23 -20 3 0 -3 9 -13 20 -10 11 -20 20 -23
20 -3 0 3 -9 13 -20z"/>
<path d="M793 1374 c-18 -24 -27 -41 -20 -38 14 5 62 73 56 78 -2 2 -18 -16
-36 -40z"/>
<path d="M430 1265 c0 -2 10 -10 23 -16 20 -11 21 -11 8 4 -13 16 -31 23 -31
12z"/>
<path d="M1937 1095 c-4 -22 -9 -51 -12 -65 -3 -14 2 -7 10 15 9 22 14 51 13
65 -3 19 -5 16 -11 -15z"/>
<path d="M1125 1075 c-66 -15 -103 -36 -146 -82 -83 -89 -90 -131 -31 -193
104 -110 308 -177 423 -139 100 34 135 137 85 245 -59 126 -201 199 -331 169z
m75 -100 c25 -31 -19 -46 -74 -25 -46 17 -28 36 35 39 15 0 32 -6 39 -14z m90
-46 c0 -5 -4 -9 -10 -9 -5 0 -10 7 -10 16 0 8 5 12 10 9 6 -3 10 -10 10 -16z
m-250 1 c0 -5 -4 -10 -10 -10 -5 0 -10 5 -10 10 0 6 5 10 10 10 6 0 10 -4 10
-10z m70 -210 c0 -5 -2 -10 -4 -10 -3 0 -8 5 -11 10 -3 6 -1 10 4 10 6 0 11
-4 11 -10z"/>
<path d="M497 1059 c7 -7 15 -10 18 -7 3 3 -2 9 -12 12 -14 6 -15 5 -6 -5z"/>
<path d="M2004 1047 c-88 -50 -125 -123 -130 -254 -3 -76 -1 -85 22 -113 14
-16 31 -30 37 -30 6 0 1 7 -11 16 -12 8 -27 25 -33 37 -11 21 -11 21 7 5 11
-10 37 -24 58 -33 36 -15 40 -15 80 5 24 11 48 31 54 45 36 79 39 279 5 317
-18 21 -58 23 -89 5z m16 -96 c0 -10 -45 -41 -60 -41 -15 0 -12 16 6 34 17 17
54 22 54 7z m-10 -61 c0 -5 -4 -10 -10 -10 -5 0 -10 5 -10 10 0 6 5 10 10 10
6 0 10 -4 10 -10z"/>
<path d="M1512 805 c0 -16 2 -22 5 -12 2 9 2 23 0 30 -3 6 -5 -1 -5 -18z"/>
<path d="M1497 748 c-12 -47 -71 -94 -140 -112 -34 -9 -78 -17 -97 -19 -19 -2
-7 -5 27 -5 51 -2 71 3 124 31 65 33 104 80 97 114 -3 13 -6 11 -11 -9z"/>
<path d="M995 710 c16 -26 168 -91 209 -89 12 0 -6 8 -39 18 -33 9 -86 31
-118 48 -31 17 -55 27 -52 23z"/>
<path d="M1673 646 c-57 -26 -36 -80 46 -119 57 -28 97 -21 135 24 31 37 33
60 5 85 -27 25 -140 31 -186 10z m142 -6 c22 -6 12 -8 -40 -8 -48 0 -64 2 -50
8 24 10 50 10 90 0z"/>
<path d="M1404 472 c8 -13 114 -64 124 -60 5 1 -22 17 -60 35 -38 18 -67 29
-64 25z"/>
<path d="M834 456 c11 -9 24 -16 30 -16 12 0 7 5 -24 19 -24 11 -24 11 -6 -3z"/>
<path d="M1892 437 c-17 -16 -34 -22 -70 -22 -26 0 -56 4 -67 8 -11 5 -9 2 5
-7 14 -8 38 -15 53 -16 32 0 91 23 102 40 13 21 -1 20 -23 -3z"/>
<path d="M1692 433 c-12 -9 -48 -19 -80 -23 -49 -6 -51 -8 -17 -9 50 -1 109
15 125 34 16 19 1 18 -28 -2z"/>
<path d="M884 432 c5 -8 71 -42 149 -76 20 -9 61 -19 90 -22 51 -5 51 -4 -28
20 -44 13 -111 38 -148 55 -37 17 -66 27 -63 23z"/>
<path d="M1186 321 c5 -5 38 -12 74 -15 l65 -6 -60 15 c-72 17 -93 19 -79 6z"/>
<path d="M1334 291 c5 -8 56 -3 56 5 0 2 -14 4 -31 4 -16 0 -28 -4 -25 -9z"/>
<path d="M1698 293 c7 -3 16 -2 19 1 4 3 -2 6 -13 5 -11 0 -14 -3 -6 -6z"/>
<path d="M1540 280 l-95 -6 112 -2 c66 -1 114 2 118 8 4 6 -4 9 -17 8 -13 -1
-66 -5 -118 -8z"/>
</g>
</svg>
