<svg width="48" height="48" viewBox="0 0 48 48" fill="none" xmlns="http://www.w3.org/2000/svg">
<path d="M24.0011 37.1622C31.2689 37.1622 37.1605 31.2698 37.1605 24.001C37.1605 16.7323 31.2689 10.8398 24.0011 10.8398C16.7334 10.8398 10.8418 16.7323 10.8418 24.001C10.8418 31.2698 16.7334 37.1622 24.0011 37.1622Z" fill="white"/>
<path d="M31.4398 22.055C31.7485 19.9764 30.164 18.8547 27.9931 18.1036L28.6927 15.284L26.9745 14.8518L26.2851 17.5993C25.8324 17.4861 25.3694 17.3832 24.9064 17.2803L25.5958 14.5123L23.8775 14.0801L23.1779 16.8996C22.8075 16.8173 22.4371 16.735 22.077 16.6423L19.7106 16.0455L19.2579 17.8772C19.2579 17.8772 20.5337 18.1653 20.5028 18.1859C21.2025 18.3608 21.3259 18.8239 21.3053 19.184L19.3813 26.912C19.299 27.1281 19.083 27.4368 18.5994 27.3236C18.62 27.3442 17.3545 27.0149 17.3545 27.0149L16.5005 28.9803L18.7332 29.536C19.1447 29.6389 19.5563 29.7521 19.9575 29.855L19.2476 32.7054L20.9658 33.1376L21.6655 30.3181C22.1387 30.4415 22.5914 30.565 23.0339 30.6782L22.3342 33.4874L24.0525 33.9196L24.7624 31.0692C27.6947 31.6249 29.8965 31.3985 30.8225 28.7539C31.5736 26.6239 30.7813 25.389 29.2483 24.5864C30.3698 24.3291 31.2134 23.5882 31.4398 22.0653V22.055ZM27.5198 27.5603C26.9848 29.6904 23.394 28.5378 22.2313 28.2497L23.1779 24.4732C24.3405 24.7613 28.0754 25.3376 27.5198 27.5603ZM28.0548 22.0241C27.5712 23.969 24.5875 22.9811 23.61 22.7342L24.464 19.3075C25.4312 19.5442 28.5589 19.997 28.0548 22.0241Z" fill="black"/>
<path d="M37.891 37.862C40.741 33.8797 41.7699 28.8066 40.6381 23.9908C40.2472 22.3032 39.5887 20.6568 38.6421 19.1029C37.4075 17.0449 35.7921 15.3367 33.9607 14.0299C31.4091 12.1982 28.4151 11.128 25.3284 10.8708C25.205 10.8708 25.0918 10.8502 24.9683 10.8502C24.8243 10.8502 24.6802 10.8502 24.5362 10.8296C24.3613 10.809 24.1761 10.809 24.0012 10.809C23.8263 10.809 23.6205 10.809 23.425 10.8296C23.3324 10.8296 23.2501 10.8296 23.1472 10.8296C22.9929 10.8296 22.8385 10.8502 22.6842 10.8605C19.6593 11.1589 16.8505 12.4863 14.6795 14.6679C12.3337 17.014 10.9962 20.0599 10.8315 23.3322C10.955 20.0085 12.0559 16.7568 14.0211 14.0299C15.338 12.1879 17.0357 10.5723 19.1037 9.33752C20.6573 8.40111 22.3035 7.74253 23.9806 7.34121C28.806 6.20929 33.899 7.23831 37.8807 10.1093C39.7121 11.4264 41.3172 13.1243 42.5518 15.1824C47.1715 22.8589 45.052 32.7169 37.891 37.8517V37.862Z" fill="url(#paint0_linear_14142_8690)"/>
<path d="M37.891 37.8629C36.574 39.7048 34.8661 41.3204 32.8083 42.5552C25.1226 47.1755 15.2557 45.0455 10.1216 37.8835C14.1033 40.7544 19.186 41.7835 24.0114 40.6412C25.6885 40.2502 27.3347 39.5916 28.8883 38.6449C30.9461 37.4101 32.654 35.7945 33.971 33.9526C35.9361 31.2257 37.0267 27.974 37.1605 24.6502C37.1605 24.4341 37.1811 24.2283 37.1811 24.0225V23.9814C37.1811 23.755 37.1811 23.5492 37.1605 23.3228C36.9856 20.0608 35.648 17.0149 33.3125 14.6687C31.1416 12.4975 28.343 11.17 25.3181 10.8613C28.4047 11.1083 31.3988 12.1888 33.9504 14.0204C35.7921 15.3273 37.3971 17.0355 38.6318 19.0935C39.5681 20.6473 40.2266 22.2938 40.6278 23.9814C41.7596 28.7972 40.741 33.8703 37.8807 37.8526L37.891 37.8629Z" fill="url(#paint1_linear_14142_8690)"/>
<path d="M37.1603 24.6587C37.0368 27.9824 35.9359 31.2342 33.9708 33.9611C32.6538 35.803 30.9459 37.4186 28.8881 38.6534C27.3345 39.5898 25.6883 40.2484 24.0112 40.6497C19.1961 41.7816 14.1031 40.7629 10.1214 37.8919C8.2797 36.5851 6.68494 34.8769 5.45028 32.8189C0.820332 25.1218 2.9604 15.2534 10.1111 10.1289C7.25082 14.1112 6.22194 19.1946 7.364 24.0104C7.75497 25.698 8.41345 27.3445 9.36002 28.8983C10.5947 30.9563 12.21 32.6645 14.0414 33.9714C16.7679 35.9368 20.0192 37.0276 23.3425 37.1613C23.5585 37.1613 23.7643 37.1819 23.9701 37.1819H24.0112C24.2376 37.1819 24.4434 37.1819 24.6697 37.1613C24.8755 37.1613 25.0813 37.1408 25.2768 37.1202C28.312 36.832 31.1311 35.5149 33.3226 33.3231C35.6581 30.9769 37.006 27.931 37.1706 24.6587H37.1603Z" fill="url(#paint2_linear_14142_8690)"/>
<path d="M37.8807 10.129C33.899 7.25804 28.8163 6.21873 23.9806 7.36095C22.3035 7.75197 20.6573 8.41055 19.1037 9.35725C17.0356 10.5921 15.338 12.2076 14.021 14.0496C12.0559 16.7765 10.9653 20.0282 10.8315 23.352C10.8315 23.5681 10.8109 23.7739 10.8109 23.9797V24.0208C10.8109 24.2472 10.8109 24.453 10.8315 24.6794C10.8315 24.8852 10.8521 25.091 10.8727 25.2865C11.1608 28.3221 12.4777 31.1314 14.6795 33.3335C17.0151 35.6694 20.0606 37.0071 23.3324 37.1717C20.0194 37.0482 16.7579 35.9472 14.0313 33.9818C12.1896 32.6749 10.5846 30.9667 9.34993 28.9087C8.41365 27.3549 7.75517 25.7084 7.35391 24.0208C6.22214 19.205 7.24073 14.1216 10.101 10.1393C11.4077 8.29736 13.1156 6.69208 15.1734 5.45725C22.8694 0.816362 32.7569 2.95673 37.8807 10.129Z" fill="url(#paint3_linear_14142_8690)"/>
<defs>
<linearGradient id="paint0_linear_14142_8690" x1="10.8315" y1="22.3855" x2="44.9903" y2="22.3855" gradientUnits="userSpaceOnUse">
<stop offset="0.33" stop-color="#3FB0FF"/>
<stop offset="0.72" stop-color="#9236EA"/>
<stop offset="1" stop-color="#F29A6B"/>
</linearGradient>
<linearGradient id="paint1_linear_14142_8690" x1="10.1216" y1="27.9431" x2="41.0908" y2="27.9431" gradientUnits="userSpaceOnUse">
<stop stop-color="#F29A6B"/>
<stop offset="0.6" stop-color="#9236EA"/>
<stop offset="1" stop-color="#3FB0FF"/>
</linearGradient>
<linearGradient id="paint2_linear_14142_8690" x1="3.00155" y1="25.6157" x2="37.1603" y2="25.6157" gradientUnits="userSpaceOnUse">
<stop stop-color="#F29A6B"/>
<stop offset="0.28" stop-color="#9236EA"/>
<stop offset="0.67" stop-color="#3FB0FF"/>
</linearGradient>
<linearGradient id="paint3_linear_14142_8690" x1="6.91149" y1="20.0797" x2="37.8807" y2="20.0797" gradientUnits="userSpaceOnUse">
<stop offset="0.01" stop-color="#3FB0FF"/>
<stop offset="0.4" stop-color="#9236EA"/>
<stop offset="1" stop-color="#F29A6B"/>
</linearGradient>
</defs>
</svg>
