<svg width="600" height="600" viewBox="0 0 600 600" fill="none" xmlns="http://www.w3.org/2000/svg">
<rect width="600" height="600" rx="300" fill="#010101"/>
<path d="M309.762 201.364L324.413 176.091C325.627 173.814 326.234 171.703 326.234 169.787C326.234 165.565 323.916 163.482 319.17 163.482H256.375C252.898 163.482 249.201 164.704 245.256 167.148C241.338 169.62 238.413 172.592 236.509 176.119L229.198 188.755C227.294 192.282 224.37 195.254 220.452 197.725C216.534 200.169 212.809 201.391 209.333 201.391C204.615 201.391 202.242 199.253 202.242 195.004C202.242 193.06 202.794 190.921 203.842 188.588L218.493 163.399C220.424 159.9 223.294 156.928 227.156 154.484C230.991 152.012 234.661 150.818 238.165 150.818H326.178C329.682 150.818 333.38 149.596 337.325 147.124C341.243 144.653 344.167 141.681 346.071 138.154L375.151 87.6086C376.365 85.3313 377 83.2206 377 81.3043C377 77.0829 374.627 75 369.909 75H194.103C190.599 75 186.902 76.222 182.984 78.6659C179.066 81.1377 176.142 84.1093 174.238 87.6364L108.849 201.391C107.635 203.669 107 205.779 107 207.696C107 211.917 109.456 214 114.311 214H290.118C293.429 214 297.043 212.806 300.988 210.334C304.906 207.862 307.831 204.891 309.735 201.364H309.762ZM240.151 125.379L254.747 100.189C256.844 96.6901 259.823 93.7185 263.686 91.2745C267.521 88.8306 271.191 87.6086 274.695 87.6086C279.413 87.6086 281.785 89.7193 281.785 93.9129C281.785 95.8292 281.178 97.9399 279.964 100.217L265.59 125.49C263.493 129.017 260.513 131.989 256.678 134.46C252.843 136.932 249.174 138.126 245.67 138.126C240.786 138.126 238.358 136.016 238.358 131.739C238.358 129.795 238.993 127.656 240.179 125.323L240.151 125.379Z" fill="white"/>
<path d="M430.822 297.774C407.006 297.774 383.113 297.546 359.297 297.926C350.518 298.078 343.725 295.418 338.229 288.58C335.099 284.705 331.74 281.057 328.305 277.41C322.351 271.103 314.947 270.875 308.535 276.802C308.153 277.182 307.695 277.562 307.39 278.018C295.787 295.191 279.528 298.686 259.375 298.23C204.796 296.862 150.141 297.774 95.4855 297.774C83.4247 297.774 82.5087 296.406 85.333 284.781C88.0048 273.763 90.3711 262.745 92.8138 251.651C94.5695 243.597 99.1496 240.861 107.623 240.861C170.598 241.165 233.574 240.861 296.474 241.241C308.229 241.241 317.618 238.202 324.87 228.932C325.863 227.64 327.16 226.5 328.229 225.285C341.816 210.772 347.389 210.164 359.908 225.968C369.373 237.974 380.289 241.697 395.098 241.317C427.769 240.482 460.516 241.317 493.264 240.937C501.279 240.861 505.63 243.445 507.462 251.347C510.21 263.125 514.943 274.447 515.248 286.756C515.477 297.318 515.095 297.774 504.103 297.774C479.676 297.774 455.326 297.774 430.899 297.774H430.822Z" fill="white"/>
<path d="M382.195 408.637C351.432 408.637 320.593 407.801 289.83 409.017C274.792 409.625 264.64 404.458 255.556 393.364C244.335 379.687 239.068 379.839 227.083 392.452C223.801 395.871 220.442 399.063 217.236 402.558C213.191 406.889 208.381 408.789 202.427 408.713C173.268 408.561 144.184 408.485 115.025 408.713C108.078 408.713 104.261 405.901 101.742 399.823C97.0097 388.273 92.5823 376.723 90.0632 364.49C87.3152 351.496 88.0022 350.585 101.132 350.585C132.2 350.585 163.268 350.585 194.336 350.585C200.137 350.585 206.091 349.977 211.817 350.737C230.671 353.168 245.022 346.937 256.09 331.208C262.884 321.634 272.502 321.178 278.914 330.753C290.823 348.685 306.929 351.344 326.852 350.964C383.721 349.901 440.591 350.585 497.383 350.585C500.437 350.585 503.49 350.585 506.543 350.813C510.895 351.192 513.108 353.396 512.04 358.031C508.375 373.38 504.177 388.501 497.078 402.71C494.33 408.257 489.674 408.561 484.483 408.561C450.361 408.561 416.24 408.561 382.118 408.561L382.195 408.637Z" fill="white"/>
<path d="M382.28 408.811C351.512 408.811 320.667 407.975 289.899 409.191C274.858 409.799 264.704 404.63 255.619 393.533C244.396 379.85 239.128 380.003 227.141 392.62C223.858 396.041 220.499 399.234 217.292 402.73C213.246 407.063 208.436 408.963 202.481 408.887C173.316 408.735 144.227 408.659 115.062 408.887C108.115 408.887 104.297 406.075 101.778 399.994C97.0443 388.44 92.6161 376.886 90.0967 364.648C87.3481 351.65 88.0353 350.738 101.167 350.738C132.241 350.738 163.314 350.738 194.388 350.738C200.19 350.738 206.145 350.13 211.871 350.89C230.729 353.322 245.083 347.089 256.153 331.355C262.948 321.777 272.568 321.321 278.981 330.899C290.891 348.838 307.001 351.498 326.928 351.118C383.807 350.054 440.686 350.738 497.489 350.738C500.543 350.738 503.596 350.738 506.65 350.966C511.002 351.346 513.216 353.55 512.147 358.187C508.483 373.542 504.284 388.668 497.183 402.882C494.435 408.431 489.778 408.735 484.586 408.735C450.458 408.735 416.331 408.735 382.203 408.735L382.28 408.811Z" fill="white"/>
<path d="M297.222 530C241.255 527.807 190.404 507.39 148.181 466.631C141.385 460.052 141.69 459.145 150.242 456.195C154.747 454.607 158.641 452.112 161.848 448.482C165.894 443.945 170.018 439.484 174.446 435.325C181.318 428.897 189.717 428.216 194.603 435.93C207.049 455.666 224.992 457.481 246.142 457.103C312.416 456.12 378.691 456.725 444.966 456.725C446.645 456.725 448.325 456.649 449.929 456.725C452.601 456.876 456.037 455.817 457.411 458.842C458.862 462.018 455.731 463.682 453.899 465.572C439.697 479.562 424.121 491.888 406.56 501.491C373.423 519.564 337.995 529.092 297.298 529.849L297.222 530Z" fill="white"/>
</svg>
