<svg width="200" height="200" viewBox="0 0 200 200" fill="none" xmlns="http://www.w3.org/2000/svg">
<rect width="200" height="200" rx="100" fill="white"/>
<path d="M25 65.0977H66.5894V78.7274H41.6199V92.7897H63.6254V106.38H41.6199V120.823H66.8144V134.452H25V65.0977Z" fill="black"/>
<path d="M78.333 65H139.983C144.991 65 149.629 65.3398 153.883 66.0325C158.15 66.7252 161.841 67.9408 164.969 69.6791C168.098 71.4174 170.554 73.7439 172.324 76.6454C174.108 79.547 175 83.2066 175 87.6373V87.7288C175 92.1465 174.108 95.8192 172.324 98.7338C170.554 101.648 168.098 103.975 164.969 105.7C161.841 107.425 158.136 108.641 153.855 109.347C149.574 110.052 144.95 110.405 139.969 110.405H101.495V134.167H78.333V65ZM136.58 96.0936C138.981 96.0936 141.081 95.9499 142.878 95.6754C144.676 95.3878 146.171 94.9435 147.379 94.3161C148.586 93.6887 149.492 92.8261 150.095 91.7282C150.699 90.6304 151.015 89.2972 151.015 87.7288V87.6373C151.015 86.0428 150.713 84.7096 150.095 83.6379C149.478 82.5661 148.586 81.7297 147.379 81.1023C146.171 80.4749 144.676 80.0175 142.878 79.743C141.081 79.4555 138.981 79.3248 136.58 79.3248H101.508V96.1198H136.58V96.0936Z" fill="black"/>
</svg>
