<svg width="482" height="482" viewBox="0 0 482 482" fill="none" xmlns="http://www.w3.org/2000/svg">
<circle cx="241" cy="241" r="241" fill="#77FBFD"/>
<mask id="path-2-outside-1_2779_13346" maskUnits="userSpaceOnUse" x="148.297" y="63.6489" width="185" height="355" fill="black">
<rect fill="white" x="148.297" y="63.6489" width="185" height="355"/>
<path d="M224.678 338.891L211.29 352.181V417.096H203.853V183.721L217.24 170.431V118.806H224.678V338.891ZM251.449 319.699L238.062 332.99V390.521H230.624V163.053L244.012 149.763V92.231H251.449V319.699ZM278.22 299.024L264.832 312.314V363.939H257.395V143.854L270.782 130.564V65.6489H278.22V299.024ZM305.004 240.636V279.828L291.617 293.118V337.359H284.18V240.636H305.004ZM331.775 259.154L318.388 272.444V310.779H310.95V240.636H331.775V259.154ZM171.122 242.113H150.297V223.595L163.685 210.305V171.971H171.122V242.113ZM197.9 242.111H177.075V202.92L190.463 189.63V145.389H197.9V242.111Z"/>
</mask>
<path d="M224.678 338.891L211.29 352.181V417.096H203.853V183.721L217.24 170.431V118.806H224.678V338.891ZM251.449 319.699L238.062 332.99V390.521H230.624V163.053L244.012 149.763V92.231H251.449V319.699ZM278.22 299.024L264.832 312.314V363.939H257.395V143.854L270.782 130.564V65.6489H278.22V299.024ZM305.004 240.636V279.828L291.617 293.118V337.359H284.18V240.636H305.004ZM331.775 259.154L318.388 272.444V310.779H310.95V240.636H331.775V259.154ZM171.122 242.113H150.297V223.595L163.685 210.305V171.971H171.122V242.113ZM197.9 242.111H177.075V202.92L190.463 189.63V145.389H197.9V242.111Z" fill="url(#paint0_linear_2779_13346)"/>
<path d="M224.678 338.891L225.542 339.761L225.904 339.402V338.891H224.678ZM211.29 352.181L210.426 351.311L210.064 351.671V352.181H211.29ZM211.29 417.096V418.322H212.516V417.096H211.29ZM203.853 417.096H202.626V418.322H203.853V417.096ZM203.853 183.721L202.989 182.851L202.626 183.211V183.721H203.853ZM217.24 170.431L218.104 171.301L218.466 170.942V170.431H217.24ZM217.24 118.806V117.58H216.014V118.806H217.24ZM224.678 118.806H225.904V117.58H224.678V118.806ZM251.449 319.699L252.313 320.569L252.675 320.209V319.699H251.449ZM238.062 332.99L237.198 332.12L236.835 332.479V332.99H238.062ZM238.062 390.521V391.747H239.288V390.521H238.062ZM230.624 390.521H229.398V391.747H230.624V390.521ZM230.624 163.053L229.76 162.183L229.398 162.543V163.053H230.624ZM244.012 149.763L244.876 150.633L245.238 150.274V149.763H244.012ZM244.012 92.231V91.0049H242.786V92.231H244.012ZM251.449 92.231H252.675V91.0049H251.449V92.231ZM278.22 299.024L279.084 299.894L279.446 299.534V299.024H278.22ZM264.832 312.314L263.968 311.444L263.606 311.803V312.314H264.832ZM264.832 363.939V365.165H266.058V363.939H264.832ZM257.395 363.939H256.168V365.165H257.395V363.939ZM257.395 143.854L256.531 142.984L256.168 143.344V143.854H257.395ZM270.782 130.564L271.646 131.434L272.008 131.074V130.564H270.782ZM270.782 65.6489V64.4229H269.556V65.6489H270.782ZM278.22 65.6489H279.446V64.4229H278.22V65.6489ZM305.004 240.636H306.23V239.41H305.004V240.636ZM305.004 279.828L305.868 280.698L306.23 280.338V279.828H305.004ZM291.617 293.118L290.753 292.248L290.391 292.607V293.118H291.617ZM291.617 337.359V338.585H292.843V337.359H291.617ZM284.18 337.359H282.954V338.585H284.18V337.359ZM284.18 240.636V239.41H282.954V240.636H284.18ZM331.775 259.154L332.639 260.024L333.001 259.664V259.154H331.775ZM318.388 272.444L317.524 271.574L317.162 271.933V272.444H318.388ZM318.388 310.779V312.005H319.614V310.779H318.388ZM310.95 310.779H309.724V312.005H310.95V310.779ZM310.95 240.636V239.41H309.724V240.636H310.95ZM331.775 240.636H333.001V239.41H331.775V240.636ZM171.122 242.113V243.339H172.348V242.113H171.122ZM150.297 242.113H149.071V243.339H150.297V242.113ZM150.297 223.595L149.433 222.725L149.071 223.085V223.595H150.297ZM163.685 210.305L164.548 211.175L164.911 210.816V210.305H163.685ZM163.685 171.971V170.745H162.458V171.971H163.685ZM171.122 171.971H172.348V170.745H171.122V171.971ZM197.9 242.111V243.337H199.126V242.111H197.9ZM177.075 242.111H175.849V243.337H177.075V242.111ZM177.075 202.92L176.211 202.05L175.849 202.41V202.92H177.075ZM190.463 189.63L191.327 190.501L191.689 190.141V189.63H190.463ZM190.463 145.389V144.163H189.237V145.389H190.463ZM197.9 145.389H199.126V144.163H197.9V145.389ZM224.678 338.891L223.814 338.021L210.426 351.311L211.29 352.181L212.154 353.051L225.542 339.761L224.678 338.891ZM211.29 352.181H210.064V417.096H211.29H212.516V352.181H211.29ZM211.29 417.096V415.87H203.853V417.096V418.322H211.29V417.096ZM203.853 417.096H205.079V183.721H203.853H202.626V417.096H203.853ZM203.853 183.721L204.716 184.591L218.104 171.301L217.24 170.431L216.376 169.561L202.989 182.851L203.853 183.721ZM217.24 170.431H218.466V118.806H217.24H216.014V170.431H217.24ZM217.24 118.806V120.032H224.678V118.806V117.58H217.24V118.806ZM224.678 118.806H223.452V338.891H224.678H225.904V118.806H224.678ZM251.449 319.699L250.585 318.829L237.198 332.12L238.062 332.99L238.925 333.86L252.313 320.569L251.449 319.699ZM238.062 332.99H236.835V390.521H238.062H239.288V332.99H238.062ZM238.062 390.521V389.295H230.624V390.521V391.747H238.062V390.521ZM230.624 390.521H231.85V163.053H230.624H229.398V390.521H230.624ZM230.624 163.053L231.488 163.923L244.876 150.633L244.012 149.763L243.148 148.893L229.76 162.183L230.624 163.053ZM244.012 149.763H245.238V92.231H244.012H242.786V149.763H244.012ZM244.012 92.231V93.457H251.449V92.231V91.0049H244.012V92.231ZM251.449 92.231H250.223V319.699H251.449H252.675V92.231H251.449ZM278.22 299.024L277.356 298.154L263.968 311.444L264.832 312.314L265.696 313.184L279.084 299.894L278.22 299.024ZM264.832 312.314H263.606V363.939H264.832H266.058V312.314H264.832ZM264.832 363.939V362.713H257.395V363.939V365.165H264.832V363.939ZM257.395 363.939H258.621V143.854H257.395H256.168V363.939H257.395ZM257.395 143.854L258.258 144.724L271.646 131.434L270.782 130.564L269.918 129.694L256.531 142.984L257.395 143.854ZM270.782 130.564H272.008V65.6489H270.782H269.556V130.564H270.782ZM270.782 65.6489V66.875H278.22V65.6489V64.4229H270.782V65.6489ZM278.22 65.6489H276.994V299.024H278.22H279.446V65.6489H278.22ZM305.004 240.636H303.778V279.828H305.004H306.23V240.636H305.004ZM305.004 279.828L304.14 278.958L290.753 292.248L291.617 293.118L292.481 293.988L305.868 280.698L305.004 279.828ZM291.617 293.118H290.391V337.359H291.617H292.843V293.118H291.617ZM291.617 337.359V336.133H284.18V337.359V338.585H291.617V337.359ZM284.18 337.359H285.406V240.636H284.18H282.954V337.359H284.18ZM284.18 240.636V241.862H305.004V240.636V239.41H284.18V240.636ZM331.775 259.154L330.912 258.284L317.524 271.574L318.388 272.444L319.251 273.314L332.639 260.024L331.775 259.154ZM318.388 272.444H317.162V310.779H318.388H319.614V272.444H318.388ZM318.388 310.779V309.553H310.95V310.779V312.005H318.388V310.779ZM310.95 310.779H312.176V240.636H310.95H309.724V310.779H310.95ZM310.95 240.636V241.862H331.775V240.636V239.41H310.95V240.636ZM331.775 240.636H330.549V259.154H331.775H333.001V240.636H331.775ZM171.122 242.113V240.887H150.297V242.113V243.339H171.122V242.113ZM150.297 242.113H151.523V223.595H150.297H149.071V242.113H150.297ZM150.297 223.595L151.161 224.465L164.548 211.175L163.685 210.305L162.821 209.435L149.433 222.725L150.297 223.595ZM163.685 210.305H164.911V171.971H163.685H162.458V210.305H163.685ZM163.685 171.971V173.197H171.122V171.971V170.745H163.685V171.971ZM171.122 171.971H169.896V242.113H171.122H172.348V171.971H171.122ZM197.9 242.111V240.885H177.075V242.111V243.337H197.9V242.111ZM177.075 242.111H178.301V202.92H177.075H175.849V242.111H177.075ZM177.075 202.92L177.939 203.791L191.327 190.501L190.463 189.63L189.599 188.76L176.211 202.05L177.075 202.92ZM190.463 189.63H191.689V145.389H190.463H189.237V189.63H190.463ZM190.463 145.389V146.615H197.9V145.389V144.163H190.463V145.389ZM197.9 145.389H196.674V242.111H197.9H199.126V145.389H197.9Z" fill="white" fill-opacity="0.4" mask="url(#path-2-outside-1_2779_13346)"/>
<defs>
<linearGradient id="paint0_linear_2779_13346" x1="285.304" y1="72.9563" x2="285.304" y2="417.096" gradientUnits="userSpaceOnUse">
<stop stop-color="#003B77"/>
<stop offset="1" stop-color="#0C8FB4"/>
</linearGradient>
</defs>
</svg>
