<?xml version="1.0" encoding="UTF-8"?>
<svg xmlns="http://www.w3.org/2000/svg" version="1.1" viewBox="0 0 100 100">
  <!-- Generator: Adobe Illustrator 28.7.3, SVG Export Plug-In . SVG Version: 1.2.0 Build 164)  -->
  <g>
    <g id="_레이어_1" data-name="레이어_1">
      <path d="M21.6,50c0-5.3,0-10.6,0-15.9,0-.4.1-.6.4-.8,6.1-3.5,12.3-7.1,18.4-10.6,3.1-1.8,6.2-3.6,9.3-5.4.2-.1.4-.1.6,0,4,2.3,8,4.6,12,6.9.4.2.4.2,0,.5-7.2,4.2-14.4,8.3-21.6,12.5-2,1.2-4,2.3-6.1,3.5-.3.2-.4.3-.4.7,0,5.8,0,11.6,0,17.4,0,.3,0,.5.3.6,4.9,2.8,9.7,5.6,14.6,8.4.7.4,1.2.4,1.8,0,4.8-2.8,9.7-5.6,14.6-8.4.2-.1.3-.3.3-.6,0-3.4,0-6.8,0-10.2,0-.4,0-.4-.4-.2-2.9,1.7-5.8,3.4-8.7,5.1-.3.2-.5.2-.9,0-3.9-2.3-7.9-4.5-11.8-6.8-.1,0-.3-.1-.3-.3,0-.1.2-.2.3-.2,6.1-3.6,12.3-7.1,18.5-10.7,3.1-1.8,6.2-3.6,9.3-5.4.3-.2.5-.2.7,0,1.9,1.1,3.7,2.2,5.6,3.2.2.1.3.3.3.6,0,10.7,0,21.4,0,32.2,0,.3,0,.4-.3.6-9.3,5.3-18.5,10.7-27.8,16.1-.3.2-.5.1-.7,0-9.2-5.3-18.4-10.6-27.6-15.9-.4-.2-.5-.5-.5-.9,0-5.3,0-10.6,0-15.8Z"/>
    </g>
  </g>
</svg>