<svg width="1000" height="1000" viewBox="0 0 1000 1000" fill="none" xmlns="http://www.w3.org/2000/svg">
<g clip-path="url(#clip0_5072_1019)">
<path d="M500 998.198C776.142 998.198 1000 775.122 1000 499.944C1000 224.767 776.142 1.69092 500 1.69092C223.858 1.69092 0 224.767 0 499.944C0 775.122 223.858 998.198 500 998.198Z" fill="white"/>
<path d="M774.608 334.461H686.085C681.012 334.446 675.999 333.355 671.381 331.261C666.763 329.167 662.645 326.118 659.301 322.316L623.41 282.28C620.747 279.335 617.494 276.981 613.861 275.37C610.227 273.758 606.294 272.926 602.317 272.926C598.34 272.926 594.407 273.758 590.773 275.37C587.14 276.981 583.886 279.335 581.224 282.28L550.422 316.978C545.377 322.624 539.187 327.137 532.261 330.22C525.335 333.303 517.831 334.885 510.245 334.861H26.7845C12.6245 374.707 3.62365 416.19 0 458.307H457.078C461.057 458.298 464.994 457.49 468.652 455.931C472.311 454.371 475.617 452.093 478.372 449.232L520.959 404.925C523.612 402.224 526.779 400.078 530.274 398.611C533.769 397.145 537.523 396.387 541.315 396.384H543.056C547.041 396.348 550.986 397.177 554.617 398.813C558.247 400.449 561.477 402.853 564.082 405.859L599.973 445.895C603.329 449.684 607.449 452.724 612.064 454.817C616.68 456.91 621.687 458.008 626.758 458.04H1000C996.442 415.914 987.44 374.422 973.215 334.594H774.608V334.461Z" fill="black"/>
<path d="M276.55 717.476C280.534 717.498 284.481 716.705 288.144 715.143C291.807 713.582 295.109 711.287 297.844 708.401L340.432 664.227C343.059 661.484 346.218 659.301 349.717 657.81C353.216 656.319 356.982 655.551 360.788 655.553H362.529C366.526 655.559 370.478 656.406 374.124 658.039C377.77 659.671 381.03 662.053 383.688 665.028L419.58 705.064C422.953 708.822 427.079 711.833 431.693 713.902C436.307 715.971 441.305 717.052 446.364 717.075H952.056C971.251 677.529 985.077 635.612 993.17 592.429H507.835C502.761 592.414 497.749 591.323 493.131 589.229C488.513 587.136 484.395 584.086 481.05 580.284L445.159 540.248C442.52 537.266 439.274 534.877 435.637 533.241C432.001 531.606 428.056 530.76 424.066 530.76C420.076 530.76 416.132 531.606 412.495 533.241C408.858 534.877 405.613 537.266 402.973 540.248L372.171 574.813C367.127 580.458 360.937 584.972 354.01 588.055C347.084 591.138 339.58 592.719 331.994 592.696H6.83032C14.9863 635.862 28.8099 677.771 47.9446 717.342L276.55 717.476Z" fill="black"/>
<path d="M635.33 199.938C639.268 199.81 643.141 198.906 646.726 197.28C650.312 195.654 653.539 193.337 656.222 190.463L699.211 146.556C701.846 143.831 705.009 141.668 708.508 140.2C712.008 138.732 715.771 137.988 719.568 138.015H721.309C725.278 137.997 729.205 138.821 732.83 140.432C736.455 142.043 739.695 144.403 742.334 147.357L778.226 187.393C781.57 191.195 785.688 194.244 790.306 196.338C794.924 198.432 799.937 199.523 805.01 199.537H901.301C854.505 137.536 793.879 87.2311 724.213 52.6001C654.548 17.9691 577.754 -0.0387729 499.901 6.26808e-05C422.049 0.0388982 345.273 18.1234 275.642 52.8238C206.011 87.5243 145.435 137.889 98.7024 199.938H635.33Z" fill="black"/>
<path d="M441.944 840.521H310.7C305.64 840.498 300.642 839.416 296.028 837.348C291.415 835.279 287.288 832.268 283.915 828.51L248.024 788.473C245.385 785.491 242.139 783.103 238.502 781.467C234.865 779.831 230.921 778.985 226.931 778.985C222.941 778.985 218.996 779.831 215.36 781.467C211.723 783.103 208.477 785.491 205.838 788.473L175.036 823.172C169.979 828.793 163.784 833.282 156.858 836.341C149.933 839.401 142.435 840.962 134.859 840.921H133.118C180.038 891.113 236.826 931.139 299.946 958.508C363.065 985.876 431.163 1000 499.999 1000C568.835 1000 636.933 985.876 700.053 958.508C763.172 931.139 819.96 891.113 866.88 840.921L441.944 840.521Z" fill="black"/>
<g clip-path="url(#clip1_5072_1019)">
<rect width="400" height="400" transform="translate(600 600)" fill="#C2FF4F"/>
<path d="M756.25 737.547C721.25 772.04 721.25 827.96 756.25 862.453L801.113 906.667C801.113 906.667 807.175 900.614 815.286 892.457C847.675 859.901 840.439 805.232 801.125 781.198C823.788 803.804 823.547 840.541 801.113 863.368L780.898 843.446C756.549 819.45 756.549 780.55 780.898 756.554L801.113 736.632C801.113 736.632 818.8 754.174 824.638 760.074C855.436 791.215 860.495 828.42 849.265 859.031C880.934 824.358 879.839 770.92 845.972 737.543L801.113 693.333" fill="black"/>
</g>
<rect x="605" y="605" width="390" height="390" rx="195" stroke="black" stroke-width="10"/>
</g>
<defs>
<clipPath id="clip0_5072_1019">
<rect width="1000" height="1000" fill="white"/>
</clipPath>
<clipPath id="clip1_5072_1019">
<rect x="600" y="600" width="400" height="400" rx="200" fill="white"/>
</clipPath>
</defs>
</svg>
