<svg width="370" height="370" viewBox="0 0 370 370" fill="none" xmlns="http://www.w3.org/2000/svg">
<g clip-path="url(#clip0_960_52058)">
<path d="M185 370C287.173 370 370 287.173 370 185C370 82.8273 287.173 0 185 0C82.8273 0 0 82.8273 0 185C0 287.173 82.8273 370 185 370Z" fill="#FED53F"/>
<path d="M186.48 358.16C281.296 358.16 358.16 281.296 358.16 186.48C358.16 91.6636 281.296 14.7998 186.48 14.7998C91.6636 14.7998 14.7998 91.6636 14.7998 186.48C14.7998 281.296 91.6636 358.16 186.48 358.16Z" fill="url(#paint0_linear_960_52058)"/>
<path d="M138.38 150.22L268.62 51.7998L276.76 157.62L165.02 236.43L138.38 150.22Z" fill="url(#paint1_linear_960_52058)"/>
<path d="M206.09 143.56L335.22 228.29L334.85 323.01L224.22 249.01L206.09 143.56Z" fill="url(#paint2_linear_960_52058)"/>
<path d="M38.8496 189.07L203.5 186.11L220.89 295.26H72.5196L40.3296 235.32L46.9896 215.34L38.8496 189.07Z" fill="url(#paint3_linear_960_52058)"/>
<path d="M186.11 211.64H56.6097C47.0055 211.64 39.2197 219.426 39.2197 229.03C39.2197 238.634 47.0055 246.42 56.6097 246.42H186.11C195.714 246.42 203.5 238.634 203.5 229.03C203.5 219.426 195.714 211.64 186.11 211.64Z" fill="white"/>
<path d="M185.74 169.46H56.9797C47.1711 169.46 39.2197 177.411 39.2197 187.22C39.2197 197.029 47.1711 204.98 56.9797 204.98H185.74C195.548 204.98 203.5 197.029 203.5 187.22C203.5 177.411 195.548 169.46 185.74 169.46Z" fill="white"/>
<path d="M210.62 129.27C217.251 122.191 228.365 121.828 235.444 128.459L329.619 216.679C336.698 223.31 337.061 234.424 330.429 241.503C323.799 248.582 312.685 248.945 305.606 242.314L211.431 154.093C204.352 147.462 203.989 136.349 210.62 129.27Z" fill="white"/>
<path d="M142.31 156.348C135.864 149.1 136.513 137.999 143.761 131.553L240.184 45.7946C247.431 39.3485 258.532 39.9984 264.978 47.246C271.424 54.4935 270.774 65.5944 263.526 72.0405L167.104 157.799C159.857 164.245 148.755 163.596 142.31 156.348Z" fill="white"/>
</g>
<defs>
<linearGradient id="paint0_linear_960_52058" x1="186.48" y1="14.7998" x2="186.48" y2="358.16" gradientUnits="userSpaceOnUse">
<stop stop-color="#20C67D"/>
<stop offset="1" stop-color="#07AC54"/>
</linearGradient>
<linearGradient id="paint1_linear_960_52058" x1="193.88" y1="112.11" x2="222.37" y2="187.22" gradientUnits="userSpaceOnUse">
<stop stop-opacity="0.3"/>
<stop offset="1" stop-opacity="0"/>
</linearGradient>
<linearGradient id="paint2_linear_960_52058" x1="267.88" y1="173.16" x2="259.74" y2="263.81" gradientUnits="userSpaceOnUse">
<stop stop-opacity="0.3"/>
<stop offset="1" stop-opacity="0"/>
</linearGradient>
<linearGradient id="paint3_linear_960_52058" x1="112.85" y1="194.62" x2="104.71" y2="285.27" gradientUnits="userSpaceOnUse">
<stop stop-opacity="0.3"/>
<stop offset="1" stop-opacity="0"/>
</linearGradient>
<clipPath id="clip0_960_52058">
<rect width="370" height="370" fill="white"/>
</clipPath>
</defs>
</svg>
