<svg width="30" height="30" viewBox="0 0 30 30" fill="none" xmlns="http://www.w3.org/2000/svg">
<path d="M30 15.0002C30 17.0243 29.6032 18.9889 28.8206 20.8393C28.0653 22.6258 26.9831 24.2293 25.607 25.6069C24.2293 26.9837 22.6258 28.0653 20.8394 28.8209C18.989 29.6031 17.0243 29.9999 15.0003 29.9999C12.9763 29.9999 11.0107 29.6031 9.16125 28.8209C7.37477 28.065 5.77066 26.9834 4.39361 25.6069C3.01626 24.2293 1.93465 22.6258 1.17969 20.8393C0.396829 18.9889 0 17.0243 0 15.0002C0 12.9762 0.396829 11.011 1.17909 9.1612C1.93405 7.37472 3.01566 5.77121 4.39301 4.39355C5.77036 3.0162 7.37417 1.9352 9.16065 1.17963C11.0104 0.397073 12.9748 0.000244141 15 0.000244141C17.0252 0.000244141 18.9887 0.397073 20.8391 1.17933C22.6255 1.9352 24.229 3.0159 25.6067 4.39325C26.9828 5.77091 28.0651 7.37442 28.8203 9.1609C29.6029 11.0107 29.9997 12.9747 29.9997 14.9999L30 15.0002Z" fill="#070707"/>
<path d="M15.0001 28.8762C22.6637 28.8762 28.8762 22.6637 28.8762 15.0001C28.8762 7.33657 22.6637 1.12402 15.0001 1.12402C7.33657 1.12402 1.12402 7.33657 1.12402 15.0001C1.12402 22.6637 7.33657 28.8762 15.0001 28.8762Z" fill="#24F351"/>
<path d="M9.70362 13.606L5.67774 20.3695C5.02656 19.2195 4.64893 18.0065 4.64893 16.9498C4.64893 14.4986 6.15166 13.2161 7.63639 13.2161C8.45104 13.2161 9.10882 13.3717 9.70392 13.606H9.70362Z" fill="#F8F8F8"/>
<path d="M14.4379 15.4957V25.5646C10.8859 25.4098 8.57722 23.8084 7.24726 22.4544C6.92811 22.1293 6.63177 21.7807 6.36182 21.4184L10.7248 14.0886C10.8667 14.1648 11.0077 14.2425 11.1493 14.3205C12.0944 14.8418 13.068 15.3781 14.4376 15.4957H14.4379Z" fill="#F8F8F8"/>
<path d="M23.6381 21.4178C23.3684 21.781 23.0718 22.1293 22.7517 22.4544C21.4218 23.8084 19.114 25.4098 15.562 25.5646V15.4957C16.9316 15.3781 17.9052 14.8421 18.8503 14.3205C18.9922 14.2419 19.1341 14.1639 19.2756 14.0886L23.6378 21.4175L23.6381 21.4178Z" fill="#F8F8F8"/>
<path d="M25.3512 16.9495C25.3512 18.0062 24.9732 19.2192 24.3223 20.3692L20.2974 13.6051C20.8922 13.3717 21.5502 13.2161 22.3631 13.2161C23.8478 13.2161 25.3515 14.4983 25.3515 16.9498L25.3512 16.9495Z" fill="#F8F8F8"/>
<path d="M25.2565 13.4225C24.4964 12.5646 23.4685 12.0925 22.3626 12.0925C20.5641 12.0925 19.4168 12.7245 18.3073 13.3367C17.319 13.8814 16.3853 14.3958 15.0001 14.3958C13.615 14.3958 12.6812 13.8814 11.692 13.3367C10.5825 12.7245 9.43523 12.0925 7.63675 12.0925C6.53085 12.0925 5.50353 12.5646 4.74287 13.4225C3.94651 14.3208 3.52539 15.541 3.52539 16.9502C3.52539 18.9967 4.64419 21.4083 6.44626 23.2421C7.99579 24.8201 10.7376 26.7008 15.0004 26.7008C19.2633 26.7008 22.0042 24.8201 23.5546 23.2421C25.3558 21.4083 26.4755 18.9967 26.4755 16.9502C26.4755 15.5407 26.0543 14.3208 25.2571 13.4225H25.2565ZM4.64899 16.9502C4.64899 14.499 6.15172 13.2164 7.63645 13.2164C8.4511 13.2164 9.10889 13.3721 9.70398 13.6064L5.6781 20.3698C5.02692 19.2198 4.64929 18.0069 4.64929 16.9502H4.64899ZM7.24742 22.4545C6.92828 22.1293 6.63193 21.7808 6.36198 21.4185L10.725 14.0887C10.8669 14.1649 11.0078 14.2425 11.1494 14.3205C12.0945 14.8418 13.0682 15.3781 14.4377 15.4957V25.5646C10.8858 25.4098 8.57708 23.8084 7.24712 22.4545H7.24742ZM22.7516 22.4545C21.4217 23.8084 19.1139 25.4098 15.5619 25.5646V15.4957C16.9315 15.3781 17.9051 14.8421 18.8502 14.3205C18.9921 14.2419 19.134 14.164 19.2756 14.0887L23.6377 21.4176C23.368 21.7808 23.0714 22.129 22.7513 22.4542L22.7516 22.4545ZM20.2969 13.6055C20.8917 13.3721 21.5497 13.2164 22.3626 13.2164C23.8473 13.2164 25.351 14.4987 25.351 16.9502C25.351 18.0069 24.973 19.2198 24.3221 20.3698L20.2972 13.6058L20.2969 13.6055Z" fill="#070707"/>
</svg>
