<svg width="64" height="64" viewBox="0 0 64 64" fill="none" xmlns="http://www.w3.org/2000/svg">
<g clip-path="url(#clip0_5102_35204)">
<g clip-path="url(#clip1_5102_35204)">
<circle cx="32.1281" cy="32" r="31.104" fill="#1C1C1C" stroke="#1FFF94" stroke-width="1.792"/>
<path d="M50.4599 29.5396H48.4177V31.5863H50.4599V29.5396Z" fill="white"/>
<path d="M50.4599 27.4927H48.4177V29.5394H50.4599V27.4927Z" fill="white"/>
<path d="M48.4176 27.4927H46.3755V29.5394H48.4176V27.4927Z" fill="white"/>
<path d="M46.3755 27.4927H44.3334V29.5394H46.3755V27.4927Z" fill="#FF4336"/>
<path d="M44.3334 29.5396H42.2913V31.5863H44.3334V29.5396Z" fill="#FF4336"/>
<path d="M44.3334 27.4927H42.2913V29.5394H44.3334V27.4927Z" fill="#FF4336"/>
<path d="M27.9927 31.5862H25.9506V33.6329H27.9927V31.5862Z" fill="#FF4336"/>
<path d="M27.9927 29.5396H25.9506V31.5863H27.9927V29.5396Z" fill="#FF4336"/>
<path d="M25.9506 29.5396H23.9084V31.5863H25.9506V29.5396Z" fill="#FF4336"/>
<path d="M25.9506 27.4927H23.9084V29.5394H25.9506V27.4927Z" fill="#FF4336"/>
<path d="M23.9085 33.6331H21.8663V35.6798H23.9085V33.6331Z" fill="#FF4336"/>
<path d="M23.9085 31.5862H21.8663V33.6329H23.9085V31.5862Z" fill="#FF4336"/>
<path d="M21.8662 31.5861H19.8224V29.5394H15.7381V27.4927H13.6959V31.5861H15.7381V33.6328H19.8224V35.6812H21.8662V33.6328V31.5861Z" fill="#1FFF94"/>
<path d="M25.9502 23.3977H27.9932V27.4924H30.0352V23.3977H31.9473V24.9094H33.877V22.9797H32.0791V17.2249H36.1631V19.2737H34.1211V27.4924H38.2051V25.4456H40.249V21.3508H42.291V19.304H44.333V17.2571H48.418V19.304H46.376V21.3508H44.333V23.3977H42.291V25.4456H44.333V27.4924H42.291V33.6331H40.249V37.7073H38.2051V39.7542H36.1631V41.801H34.1211V47.1047H27.9932V39.7542H23.9082V37.7073H21.8662V35.6809H23.9082V31.5862H25.9502V33.6331H27.9932V29.5393H25.9502V27.4924H23.9082V17.1897H25.9502V23.3977ZM28.0869 41.7971H30.0166V39.8674H28.0869V41.7971ZM32.4297 37.0891H34.4717V33.1125H32.4297V37.0891Z" fill="#1FFF94"/>
</g>
</g>
<defs>
<clipPath id="clip0_5102_35204">
<rect width="64" height="64" fill="white"/>
</clipPath>
<clipPath id="clip1_5102_35204">
<rect width="64" height="64" fill="white" transform="translate(0.128052)"/>
</clipPath>
</defs>
</svg>
