<svg width="240" height="240" viewBox="0 0 240 240" fill="none" xmlns="http://www.w3.org/2000/svg">
<g clip-path="url(#clip0_760_416)">
<path d="M120 240C186.274 240 240 186.274 240 120C240 53.7258 186.274 0 120 0C53.7258 0 0 53.7258 0 120C0 186.274 53.7258 240 120 240Z" fill="url(#paint0_linear_760_416)"/>
<path d="M190.647 145.474L178.407 175.922C175.561 182.997 168.647 187.635 160.949 187.635C147.669 187.635 138.584 174.369 143.492 162.169L153.488 137.316C156.826 129.014 150.642 119.99 141.613 119.99C128.57 119.99 116.84 127.859 112.006 139.861L97.5037 175.904C94.658 182.979 87.7443 187.617 80.0462 187.617C66.7661 187.617 57.6817 174.351 62.5887 162.151L74.829 131.703C77.091 126.09 72.9136 119.99 66.8026 119.99C53.5225 119.99 44.438 106.724 49.3451 94.5234L61.5854 64.0757C64.4312 57.0007 71.3448 52.3623 79.0429 52.3623C92.323 52.3623 101.407 65.6279 96.5004 77.8286L86.5039 102.681C83.1656 110.983 89.3496 120.008 98.3793 120.008C111.422 120.008 123.152 112.139 127.986 100.136L142.488 64.0938C145.334 57.0188 152.248 52.3804 159.946 52.3804C173.226 52.3804 182.31 65.6459 177.403 77.8466L165.163 108.294C162.901 113.907 167.078 120.008 173.189 120.008C186.469 120.008 195.554 133.273 190.647 145.474Z" fill="white"/>
</g>
<defs>
<linearGradient id="paint0_linear_760_416" x1="0" y1="0" x2="285.418" y2="81.7337" gradientUnits="userSpaceOnUse">
<stop stop-color="#4648FF"/>
<stop offset="0.650677" stop-color="#FF7262"/>
<stop offset="1" stop-color="#FFAEA5"/>
</linearGradient>
<clipPath id="clip0_760_416">
<rect width="240" height="240" fill="white"/>
</clipPath>
</defs>
</svg>
