<?xml version="1.0" encoding="UTF-8"?>
<svg width="42px" height="42px" viewBox="0 0 42 42" version="1.1" xmlns="http://www.w3.org/2000/svg" xmlns:xlink="http://www.w3.org/1999/xlink">
    <title>SSBTC-Black2</title>
    <defs>
        <path d="M14.8836774,3.27374797 C14.635641,1.09127001 11.9069546,0.24247687 9.7984228,0 L7.68989099,0 L6.32556368,0 L4.21706361,0 L0,0 L0,2.18247796 L1.61239547,2.18247796 C2.35656824,2.18247796 2.6046364,2.42501688 2.6046364,2.91000164 L2.6046364,12.0038149 C2.6046364,12.7313076 2.23255002,12.9738155 1.73641369,12.9738155 L0.248068166,12.9738155 L0.124018216,15.1563245 L4.21706361,15.1563245 L6.32559542,15.1563245 L7.68992273,15.1563245 L9.79845453,15.1563245 L10.2945909,15.1563245 C14.6356727,15.1563245 16,13.0950539 16,10.3062907 C16,7.51752751 13.1472954,6.79003486 13.1472954,6.79003486 C13.1472637,6.79003486 15.2557955,5.82003431 14.8836774,3.27374797 Z M7.81390921,2.30374742 C8.80618187,2.30374742 10.9146819,2.42501688 10.9146819,4.12251008 C10.9146819,5.69879587 9.7984228,6.18378064 9.05425004,6.30501907 L6.32556368,6.30501907 L6.32556368,2.30374742 L7.81390921,2.30374742 Z M8.68216365,12.8525771 L6.32556368,12.8525771 L6.32556368,8.48752806 L9.05425004,8.48752806 C9.67440458,8.48752806 12.0309728,8.73003595 12.0309728,10.3062907 C12.0309728,11.8825455 10.9147137,12.8525771 8.68216365,12.8525771 L8.68216365,12.8525771 Z" id="path-1"></path>
    </defs>
    <g id="最终版" stroke="none" stroke-width="1" fill="none" fill-rule="evenodd">
        <g id="画板" transform="translate(-194.000000, -34.000000)">
            <g id="SSBTC-Black2" transform="translate(194.000000, 34.000000)">
                <g id="编组-14备份-6" transform="translate(1.000000, 1.000000)">
                    <circle id="椭圆形备份-25" fill="#000000" fill-rule="nonzero" cx="20" cy="20" r="20"></circle>
                    <g id="编组-13备份-3" transform="translate(12.000000, 8.000000)">
                        <polygon id="路径-5" stroke="#FFFFFF" stroke-width="0.507560951" fill="#000000" fill-rule="nonzero" points="4.12903226 1.14558876 4.12903226 4.22024481 6.0161066 4.22024481 6.0161066 1.77499259 6.59474281 0.961839387 5.16597514 0"></polygon>
                        <polygon id="路径-5备份" stroke="#FFFFFF" stroke-width="0.507560951" fill="#000000" fill-rule="nonzero" points="7.74193548 1.14558876 7.74193548 4.22024481 9.62900983 4.22024481 9.62900983 1.77499259 10.207646 0.961839387 8.77887837 0"></polygon>
                        <polygon id="路径-5" fill="#FFFFFF" fill-rule="nonzero" transform="translate(4.845759, 20.889878) scale(-1, -1) translate(-4.845759, -20.889878) " points="3.61290323 19.925344 3.61290323 23 5.49997757 23 5.49997757 20.5547478 6.07861378 19.7415946 4.64984611 18.7797552"></polygon>
                        <polygon id="路径-5备份" fill="#FFFFFF" fill-rule="nonzero" transform="translate(8.458662, 20.889878) scale(-1, -1) translate(-8.458662, -20.889878) " points="7.22580645 19.925344 7.22580645 23 9.11288079 23 9.11288079 20.5547478 9.691517 19.7415946 8.26274934 18.7797552"></polygon>
                        <g id="路径" transform="translate(0.000000, 3.942927)">
                            <mask id="mask-2" fill="white">
                                <use xlink:href="#path-1"></use>
                            </mask>
                            <use id="蒙版" stroke="#FFFFFF" stroke-width="0.507560951" fill="#000000" fill-rule="nonzero" xlink:href="#path-1"></use>
                            <ellipse id="椭圆形" fill="#FFFFFF" mask="url(#mask-2)" cx="3.87096774" cy="14.7192676" rx="5.93548387" ry="5.83695094"></ellipse>
                            <path d="M16.3802014,8.9034411 C16.469228,9.30546375 16.516129,9.72295515 16.516129,10.151219 C16.516129,13.374878 13.8587224,15.98817 10.5806452,15.98817 C7.30256794,15.98817 4.64516129,13.374878 4.64516129,10.151219 C4.64516129,9.72295515 4.69206236,9.30546375 4.78108896,8.9034411 C5.94448801,10.8641688 8.10613445,12.1814628 10.5806452,12.1814628 C13.0247989,12.1814628 15.1637177,10.8962912 16.336751,8.97563135 Z" id="形状结合" fill="#FFFFFF" mask="url(#mask-2)"></path>
                        </g>
                    </g>
                </g>
            </g>
        </g>
    </g>
</svg>