<svg width="256" height="256" viewBox="0 0 256 256" fill="none" xmlns="http://www.w3.org/2000/svg">
<g clip-path="url(#clip0_2307_9629)">
<circle cx="128" cy="128" r="128" fill="#501BC0"/>
<path d="M64.9337 98.9447C65.0628 99.1705 65.3012 99.3096 65.5592 99.3096H102.362C102.62 99.3096 102.858 99.4488 102.988 99.6745L127.245 142.124C127.523 142.611 128.217 142.611 128.496 142.124L140.207 121.629C140.336 121.403 140.336 121.125 140.207 120.899L128.496 100.405C128.217 99.918 128.565 99.3096 129.121 99.3096H152.424C152.689 99.3096 152.933 99.1621 153.059 98.9256L163.782 78.7902C164.041 78.3039 163.692 77.7144 163.146 77.7144H54.0567C53.5007 77.7144 53.1532 78.3226 53.4311 78.8093L64.9337 98.9447Z" fill="white"/>
<path d="M72.4634 111.732L115.587 187.187L127.504 207.641C127.784 208.122 128.476 208.119 128.752 207.637L202.569 78.8061C202.847 78.3209 202.499 77.7144 201.943 77.7144H178.73C178.472 77.7144 178.233 77.8531 178.104 78.0782L128.757 164.205C128.479 164.69 127.784 164.69 127.506 164.205L97.0194 111.005C96.8904 110.78 96.652 110.641 96.3939 110.641H73.0893C72.5337 110.641 72.1862 111.247 72.4634 111.732Z" fill="white"/>
</g>
<defs>
<clipPath id="clip0_2307_9629">
<rect width="256" height="256" rx="128" fill="white"/>
</clipPath>
</defs>
</svg>
