<svg width="21" height="20" viewBox="0 0 21 20" fill="none" xmlns="http://www.w3.org/2000/svg">
<path d="M20.2309 9.90546C20.2309 15.1049 15.702 19.3198 10.1154 19.3198C4.52883 19.3198 0 15.1049 0 9.90546C0 4.70606 4.52883 0.680176 10.1154 0.680176C15.702 0.680176 20.2309 4.70606 20.2309 9.90546Z" fill="#FF3F6D"/>
<path d="M9.98558 1.65611C10.0587 1.5862 10.1739 1.5862 10.247 1.65611L11.3505 2.71154C11.3766 2.7365 11.4093 2.75346 11.4447 2.76043L15.3782 3.5337C15.5741 3.57221 15.5844 3.84864 15.3918 3.90154L13.2783 4.4822C13.1441 4.51907 13.0944 4.68342 13.1856 4.78851L15.0243 6.90541C15.1481 7.04796 15.0095 7.26397 14.8283 7.21082L10.17 5.84422C10.1349 5.83393 10.0976 5.83402 10.0626 5.84448L5.48166 7.21264C5.3021 7.26627 5.16231 7.0541 5.28243 6.91028L7.05541 4.7874C7.14361 4.68179 7.09306 4.52034 6.96038 4.48388L4.84069 3.90154C4.64816 3.84864 4.6584 3.57221 4.85431 3.5337L8.78784 2.76043C8.82327 2.75346 8.85596 2.7365 8.88205 2.71154L9.98558 1.65611Z" fill="white"/>
</svg>
