<?xml version="1.0" encoding="UTF-8"?>
<svg xmlns="http://www.w3.org/2000/svg" xmlns:xlink="http://www.w3.org/1999/xlink" width="32px" height="32px" viewBox="0 0 32 32" version="1.1">
<g id="surface1">
<path style=" stroke:none;fill-rule:nonzero;fill:rgb(35.294119%,33.333334%,39.215687%);fill-opacity:1;" d="M 26.09375 6.714844 L 25.214844 7.59375 C 29.558594 12.347656 29.558594 19.628906 25.214844 24.382812 L 26.09375 25.261719 C 30.925781 20.015625 30.925781 11.941406 26.09375 6.695312 Z M 26.09375 6.714844 "/>
<path style=" stroke:none;fill-rule:nonzero;fill:rgb(35.294119%,33.333334%,39.215687%);fill-opacity:1;" d="M 7.613281 6.792969 C 12.367188 2.445312 19.652344 2.445312 24.402344 6.792969 L 25.28125 5.914062 C 20.035156 1.078125 11.960938 1.078125 6.714844 5.914062 Z M 7.613281 6.792969 "/>
<path style=" stroke:none;fill-rule:nonzero;fill:rgb(35.294119%,33.333334%,39.215687%);fill-opacity:1;" d="M 6.792969 24.390625 C 2.453125 19.640625 2.453125 12.363281 6.792969 7.613281 L 5.914062 6.734375 C 1.078125 11.976562 1.078125 20.054688 5.914062 25.300781 Z M 6.792969 24.390625 "/>
<path style=" stroke:none;fill-rule:nonzero;fill:rgb(35.294119%,33.333334%,39.215687%);fill-opacity:1;" d="M 24.390625 25.203125 C 19.640625 29.546875 12.355469 29.546875 7.601562 25.203125 L 6.722656 26.082031 C 11.96875 30.914062 20.046875 30.914062 25.289062 26.082031 Z M 24.390625 25.203125 "/>
<path style=" stroke:none;fill-rule:nonzero;fill:rgb(94.117647%,57.254905%,25.882354%);fill-opacity:1;" d="M 21.546875 13.066406 C 21.371094 11.234375 19.789062 10.621094 17.789062 10.433594 L 17.789062 7.90625 L 16.242188 7.90625 L 16.242188 10.386719 C 15.835938 10.386719 15.421875 10.386719 15.007812 10.386719 L 15.007812 7.90625 L 13.472656 7.90625 L 13.472656 10.449219 L 10.335938 10.449219 L 10.335938 12.105469 C 10.335938 12.105469 11.476562 12.085938 11.460938 12.105469 C 11.886719 12.058594 12.277344 12.359375 12.339844 12.785156 L 12.339844 19.742188 C 12.332031 19.890625 12.261719 20.023438 12.152344 20.121094 C 12.042969 20.21875 11.898438 20.265625 11.753906 20.253906 C 11.773438 20.273438 10.628906 20.253906 10.628906 20.253906 L 10.335938 22.105469 L 13.441406 22.105469 L 13.441406 24.6875 L 14.988281 24.6875 L 14.988281 22.140625 L 16.226562 22.140625 L 16.226562 24.675781 L 17.773438 24.675781 L 17.773438 22.121094 C 20.386719 21.964844 22.210938 21.320312 22.4375 18.875 C 22.621094 16.90625 21.695312 16.027344 20.21875 15.671875 C 21.117188 15.230469 21.671875 14.410156 21.546875 13.066406 Z M 19.378906 18.570312 C 19.378906 20.488281 16.085938 20.269531 15.039062 20.269531 L 15.039062 16.859375 C 16.085938 16.863281 19.378906 16.5625 19.378906 18.570312 Z M 18.664062 13.765625 C 18.664062 15.523438 15.914062 15.308594 15.042969 15.308594 L 15.042969 12.210938 C 15.914062 12.210938 18.664062 11.933594 18.664062 13.765625 Z M 18.664062 13.765625 "/>
<path style=" stroke:none;fill-rule:nonzero;fill:rgb(15.686275%,12.941177%,21.960784%);fill-opacity:1;" d="M 15.996094 32 C 7.160156 32 0 24.835938 0 16 C 0 7.164062 7.164062 0 16 0 C 24.835938 0 32 7.160156 32 15.996094 C 32 24.835938 24.835938 32 15.996094 32 Z M 15.996094 1.246094 C 7.855469 1.253906 1.261719 7.855469 1.265625 15.996094 C 1.269531 24.136719 7.867188 30.734375 16.007812 30.734375 C 24.148438 30.734375 30.75 24.136719 30.753906 15.996094 C 30.753906 12.082031 29.199219 8.332031 26.433594 5.5625 C 23.664062 2.796875 19.910156 1.246094 15.996094 1.246094 Z M 15.996094 1.246094 "/>
</g>
</svg>
